<svg width="22px" height="30px" viewBox="0 0 27 37" fill="none" xmlns="http://www.w3.org/2000/svg">
<path d="M13.5007 0.583374C6.5669 0.583374 0.958984 6.19129 0.958984 13.125C0.958984 16.2425 1.85482 19.163 3.48523 21.7967C5.18732 24.5559 7.4269 26.9209 9.1469 29.68C9.98898 31.0238 10.5982 32.278 11.2432 33.7292C11.709 34.7146 12.0852 36.4167 13.5007 36.4167C14.9161 36.4167 15.2923 34.7146 15.7402 33.7292C16.4032 32.278 16.9944 31.0238 17.8365 29.68C19.5565 26.9388 21.7961 24.5738 23.4982 21.7967C25.1465 19.163 26.0423 16.2425 26.0423 13.125C26.0423 6.19129 20.4344 0.583374 13.5007 0.583374ZM13.5007 18.0521C11.0282 18.0521 9.02148 16.0455 9.02148 13.573C9.02148 11.1005 11.0282 9.09379 13.5007 9.09379C15.9732 9.09379 17.9798 11.1005 17.9798 13.573C17.9798 16.0455 15.9732 18.0521 13.5007 18.0521Z" fill="black"/>
</svg>
